<svg width="32" height="32" viewBox="0 0 100 100" xmlns="http://www.w3.org/2000/svg">
    <!-- Megaphone/Speaker representing freedom of speech -->
    <path d="M20 30 L45 30 L65 15 L85 15 L85 85 L65 85 L45 70 L20 70 Z" stroke="#1DA1F2" stroke-width="3" fill="#1DA1F2"/>
    <!-- Sound waves -->
    <path d="M75 25 Q85 35 85 50 Q85 65 75 75" stroke="#1DA1F2" stroke-width="2" fill="none"/>
    <path d="M80 30 Q87 38 87 50 Q87 62 80 70" stroke="#1DA1F2" stroke-width="2" fill="none"/>
    <path d="M85 35 Q90 42 90 50 Q90 58 85 65" stroke="#1DA1F2" stroke-width="1.5" fill="none"/>
    <!-- Voice opening -->
    <circle cx="30" cy="50" r="8" fill="white"/>
    <!-- Speech particles -->
    <circle cx="50" cy="42" r="1.5" fill="#1DA1F2" opacity="0.8"/>
    <circle cx="55" cy="50" r="1" fill="#1DA1F2" opacity="0.6"/>
    <circle cx="60" cy="58" r="1.2" fill="#1DA1F2" opacity="0.7"/>
</svg>
